<mxfile host="app.diagrams.net" modified="2024-08-02T11:20:23.482Z" agent="Mozilla/5.0 (Windows NT 10.0; Win64; x64) AppleWebKit/537.36 (KHTML, like Gecko) Chrome/127.0.0.0 Safari/537.36 Edg/127.0.0.0" version="24.4.6" etag="cf7jGRji0QpVbd4pFGc0" type="github">
  <diagram name="Page-1" id="iptAqWqSr0njMMsVc_aC">
    <mxGraphModel>
      <root>
        <mxCell id="0" />
        <mxCell id="1" parent="0" />
      </root>
    </mxGraphModel>
  </diagram>
</mxfile>
